<svg width="210" height="44" viewBox="0 0 210 44" fill="none" xmlns="http://www.w3.org/2000/svg">
<path d="M47.4736 11.3243L48.028 11.5091L48.0292 11.5079L47.4736 11.3243Z" fill="#242746"/>
<path d="M104.483 14.3677L104.485 14.3688L105.063 14.2905L104.483 14.3677Z" fill="#242746"/>
<path d="M106.553 11.2552C105.767 10.3541 104.646 9.94464 103.287 9.94464C102.527 9.94594 101.775 10.1058 101.079 10.414C100.719 10.5716 100.371 10.7563 100.039 10.9666V10.2626H96.9424V22.8507H100.039V14.037C100.447 13.7429 100.883 13.4894 101.341 13.2803C101.781 13.0686 102.261 12.9538 102.749 12.9435C103.093 12.9285 103.436 12.9844 103.758 13.1078L103.993 12.5716L103.758 13.1043C103.951 13.1816 104.114 13.3206 104.22 13.4997V13.5067L104.714 13.1946L104.22 13.5067C104.362 13.7691 104.448 14.0579 104.472 14.355L105.059 14.2775L104.472 14.3562C104.532 14.8187 104.561 15.2848 104.559 15.7512V22.8507H107.656V14.8489C107.67 13.3718 107.327 12.1434 106.553 11.2552Z" fill="#242746"/>
<path d="M119.807 11.2552C119.02 10.3541 117.901 9.94464 116.541 9.94464C115.781 9.94594 115.029 10.1058 114.333 10.414C113.973 10.5719 113.625 10.7566 113.293 10.9666V10.2626H110.196V22.8507H113.293V14.037C113.701 13.7429 114.137 13.4894 114.595 13.2803C115.035 13.0686 115.515 12.9538 116.003 12.9435C116.347 12.9284 116.69 12.9843 117.012 13.1078L117.239 12.574L117.005 13.1137C117.198 13.191 117.361 13.33 117.467 13.5091V13.5161L117.952 13.2099H117.961L117.467 13.522C117.609 13.7843 117.695 14.0731 117.719 14.3702L118.264 14.2963H118.3L117.713 14.3749C117.773 14.8375 117.802 15.3035 117.8 15.77V22.8507H120.897V14.8489C120.924 13.3718 120.581 12.1434 119.807 11.2552Z" fill="#242746"/>
<path d="M167.105 10.2566H163.722V6.97144H160.626V10.2566H159.327V13.0455H160.626V18.5352C160.626 19.9866 160.942 21.1751 161.701 21.9612C162.46 22.7473 163.513 23.0805 164.783 23.0805C165.191 23.0773 165.598 23.0447 166.001 22.9831C166.423 22.9244 166.841 22.8414 167.254 22.7344L167.105 22.1677L167.254 22.7356L167.691 22.6182V19.8516H166.887L166.78 19.8951L167.003 20.4383L166.78 19.8951C166.662 19.942 166.45 20.0124 166.117 20.1062C165.845 20.1807 165.565 20.2201 165.284 20.2236C164.781 20.2236 164.484 20.1637 164.334 20.0969C164.182 20.0172 164.059 19.8921 163.982 19.739L163.478 20.0194L163.983 19.7378C163.861 19.5215 163.788 19.2813 163.768 19.0339C163.743 18.7159 163.729 18.263 163.729 17.6694V13.0455H167.698V10.2566H167.105ZM163.177 19.0773H163.205H163.177ZM164.082 20.6225L164.091 20.6072L164.082 20.6225Z" fill="#242746"/>
<path d="M171.382 10.2566H169.459H168.872V10.8432V22.2686V22.8552H169.459H171.382H171.968V22.2686V10.8432V10.2566H171.382Z" fill="#242746"/>
<path d="M209.918 18.9787C209.918 18.026 209.636 17.2024 209.029 16.5676L208.613 16.9724L209.033 16.5641C208.447 15.9634 207.648 15.5704 206.68 15.3474C206.375 15.277 205.997 15.1996 205.549 15.1128C205.12 15.0318 204.727 14.952 204.389 14.8781C203.778 14.7362 203.422 14.5672 203.24 14.4159L202.864 14.8664L203.237 14.4182C203.113 14.3173 203.013 14.1495 203.013 13.8093C203.008 13.6715 203.041 13.5349 203.109 13.4151C203.191 13.2917 203.303 13.1921 203.436 13.1264L203.148 12.6172L203.433 13.1123C203.809 12.9012 204.297 12.7791 204.924 12.7791C205.562 12.7844 206.194 12.9007 206.792 13.1229C207.376 13.317 207.927 13.5965 208.429 13.9524L208.584 14.0697H209.465V11.0685L209.147 10.9042C208.548 10.611 207.915 10.3919 207.263 10.2519C206.543 10.0733 205.804 9.98232 205.063 9.98088C204.332 9.97299 203.604 10.0795 202.905 10.2965C202.302 10.4735 201.74 10.7682 201.251 11.1635C200.812 11.5195 200.456 11.9672 200.209 12.4753L200.738 12.7275L200.723 12.7205L200.209 12.4753C199.982 12.969 199.866 13.5064 199.869 14.0498C199.848 14.8708 200.115 15.6733 200.622 16.3189L201.071 15.947L200.622 16.3189C201.155 16.9642 202.002 17.3972 203.061 17.6776L203.179 17.2235L203.208 17.1062L203.058 17.674C203.436 17.7726 203.849 17.8653 204.297 17.9486C204.737 18.0307 205.086 18.0999 205.353 18.1598L205.482 17.5872L205.441 17.7679L205.353 18.1598C206.081 18.3217 206.445 18.4953 206.582 18.6174C206.683 18.7077 206.776 18.8684 206.776 19.204C206.776 19.597 206.635 19.8235 206.355 19.9842C206.003 20.186 205.456 20.3163 204.662 20.3163C204 20.3068 203.345 20.1838 202.725 19.9525C202.052 19.7094 201.42 19.3682 200.847 18.94L200.691 18.8227H199.807V21.9295L200.13 22.0926C200.731 22.3818 201.356 22.6174 201.998 22.7966H202.005L202.163 22.2322L202.005 22.7966C202.817 23.0149 203.655 23.1219 204.495 23.1145C206.071 23.1145 207.39 22.7625 208.384 21.9882C209.393 21.2326 209.918 20.2095 209.918 18.9787ZM207.133 10.8268L207.144 10.7775L207.133 10.8268Z" fill="#242746"/>
<path d="M171.505 6.34845H169.336H168.749V6.93509V8.93083V9.51747H169.336H171.505H172.092V8.93083V6.93509V6.34845H171.505Z" fill="#242746"/>
<path d="M146.483 10.2566H144.468H144.066L143.92 10.632L144.468 10.8432L143.92 10.632L140.958 18.3135L137.967 10.6309L137.822 10.2566H137.42H135.333H134.465L134.789 11.0615L139.382 22.488L139.53 22.8552H139.926H141.859H142.255L142.403 22.4892L141.859 22.2686L142.403 22.4892L147.027 11.0626L147.353 10.2566H146.483Z" fill="#242746"/>
<path d="M93.2818 22.2639H87.2676V20.714H89.2621V8.59292H87.2676V7.03833H93.2818V8.59292H91.2872V20.714H93.2818V22.2639Z" fill="#ED3237"/>
<path d="M93.2815 6.45166H87.2673H86.6807V7.0383V8.59289V9.17953H87.2673H88.6752V20.1274H87.2673H86.6807V20.714V22.2686V22.8552H87.2673H93.2815H93.8681V22.2686V20.714V20.1274H93.2815H91.8736V9.17953H93.2815H93.8681V8.59289V7.0383V6.45166H93.2815Z" fill="#ED3237"/>
<path d="M46.9698 36.186C46.9698 34.9971 47.2635 34.0671 47.851 33.396C48.4384 32.7249 49.2855 32.387 50.3923 32.3823C51.0376 32.3823 51.5706 32.4926 51.9914 32.7131C52.3865 32.9019 52.707 33.2174 52.9019 33.6095C52.9965 33.8066 52.9813 33.9423 52.8561 34.0166L52.4537 34.2513C52.3192 34.3295 52.1987 34.265 52.0923 34.0577C51.9577 33.8181 51.7698 33.6126 51.5433 33.457C51.2887 33.2704 50.9226 33.1766 50.4474 33.1766C49.5987 33.1766 48.9812 33.4413 48.5948 33.9709C48.2084 34.5004 48.0164 35.2388 48.0187 36.186C48.0187 37.1364 48.2108 37.8763 48.5948 38.4059C48.9789 38.9354 49.5933 39.1986 50.438 39.1955C50.9269 39.1955 51.318 39.0836 51.6113 38.8599C51.8723 38.6733 52.0907 38.4334 52.2519 38.156C52.3575 37.9588 52.4799 37.8994 52.6191 37.9776L53.0415 38.2123C53.1589 38.2838 53.1741 38.4188 53.072 38.6194C52.8488 39.0337 52.509 39.3735 52.0947 39.5967C51.6434 39.8549 51.0747 39.9839 50.3887 39.9839C49.2859 39.9839 48.4388 39.648 47.8474 38.9761C47.2561 38.3042 46.9636 37.3742 46.9698 36.186ZM54.0752 37.1645C54.0752 36.3667 54.2856 35.7081 54.7064 35.1887C55.1272 34.6694 55.7467 34.4081 56.5649 34.405C57.3807 34.405 57.9986 34.6662 58.4186 35.1887C58.8387 35.7112 59.0503 36.3698 59.0534 37.1645C59.0534 37.9624 58.8414 38.6229 58.4175 39.1462C57.9935 39.6695 57.3756 39.9292 56.5637 39.9253C55.7494 39.9253 55.13 39.6656 54.7052 39.1462C54.2805 38.6268 54.0705 37.9663 54.0752 37.1645ZM55.022 37.1645C55.022 37.8779 55.1628 38.4059 55.4444 38.7485C55.5832 38.9097 55.7551 39.0391 55.9485 39.1278C56.1419 39.2165 56.3521 39.2624 56.5649 39.2624C56.7776 39.2624 56.9879 39.2165 57.1812 39.1278C57.3746 39.0391 57.5466 38.9097 57.6853 38.7485C57.9669 38.4059 58.1077 37.8779 58.1077 37.1645C58.1077 36.4512 57.9669 35.9236 57.6853 35.5818C57.5468 35.4202 57.3749 35.2905 57.1815 35.2015C56.9881 35.1126 56.7777 35.0666 56.5649 35.0666C56.352 35.0666 56.1416 35.1126 55.9482 35.2015C55.7548 35.2905 55.583 35.4202 55.4444 35.5818C55.162 35.9236 55.0208 36.4512 55.0208 37.1645H55.022ZM59.9204 37.1645C59.9204 36.3667 60.1308 35.7081 60.5517 35.1887C60.9725 34.6694 61.5904 34.4077 62.4054 34.4038C63.2197 34.4038 63.8372 34.6651 64.258 35.1876C64.6788 35.7101 64.8928 36.3691 64.8998 37.1645C64.8998 37.9624 64.6875 38.6229 64.2627 39.1462C63.838 39.6695 63.2189 39.9288 62.4054 39.9241C61.5904 39.9241 60.9705 39.6644 60.5458 39.145C60.1211 38.6257 59.9122 37.9655 59.9193 37.1645H59.9204ZM60.8684 37.1645C60.8684 37.8779 61.0092 38.4059 61.2908 38.7485C61.4295 38.9097 61.6013 39.0391 61.7946 39.1278C61.9879 39.2165 62.1981 39.2624 62.4107 39.2624C62.6234 39.2624 62.8335 39.2165 63.0268 39.1278C63.2201 39.0391 63.3919 38.9097 63.5306 38.7485C63.813 38.4059 63.9542 37.8779 63.9542 37.1645C63.9542 36.4512 63.813 35.9236 63.5306 35.5818C63.3922 35.4202 63.2204 35.2905 63.0271 35.2016C62.8338 35.1127 62.6235 35.0666 62.4107 35.0666C62.1979 35.0666 61.9877 35.1127 61.7944 35.2016C61.6011 35.2905 61.4293 35.4202 61.2908 35.5818C61.0085 35.9236 60.8673 36.4512 60.8673 37.1645H60.8684ZM66.2855 39.8384C66.2544 39.843 66.2226 39.8402 66.1928 39.8303C66.163 39.8204 66.1359 39.8037 66.1137 39.7814C66.0914 39.7592 66.0747 39.7321 66.0648 39.7023C66.0549 39.6725 66.0521 39.6407 66.0567 39.6096V33.2528C66.057 33.1851 66.0743 33.1185 66.1071 33.0592L66.4591 32.4128C66.5236 32.2954 66.5764 32.2344 66.6175 32.2344H66.7958C66.8979 32.2344 66.9484 32.2943 66.9484 32.4128V39.6085C66.9531 39.6401 66.9503 39.6725 66.9401 39.7028C66.9299 39.7332 66.9126 39.7607 66.8897 39.783C66.8668 39.8054 66.8388 39.822 66.8082 39.8314C66.7776 39.8408 66.7452 39.8428 66.7137 39.8373L66.2855 39.8384ZM71.6121 35.1641C71.4596 35.1641 71.3775 35.1043 71.3775 34.9858V34.6702C71.3775 34.5528 71.4537 34.4918 71.6121 34.4918H72.2128V34.0319C72.213 33.964 72.2308 33.8973 72.2645 33.8383L72.6165 33.1918C72.681 33.0745 72.7338 33.0135 72.7748 33.0135H72.9532C73.0553 33.0135 73.1057 33.0733 73.1057 33.1918V34.4906H74.191C74.3435 34.4906 74.4198 34.5493 74.4198 34.669V34.9846C74.4198 35.1019 74.3435 35.1629 74.191 35.1629H73.1057V38.4059C73.1057 38.7625 73.1585 38.9952 73.2641 39.104C73.3146 39.1548 73.3748 39.1949 73.4411 39.2219C73.5074 39.2489 73.5785 39.2623 73.6501 39.2612C73.7931 39.2553 73.9335 39.221 74.0631 39.1603C74.1815 39.1161 74.2942 39.0578 74.3987 38.9866C74.4608 38.9397 74.5078 38.955 74.5418 39.0324L74.7096 39.4243C74.7171 39.4388 74.7215 39.4548 74.7225 39.4712C74.7235 39.4876 74.721 39.504 74.7153 39.5194C74.7095 39.5347 74.7006 39.5487 74.6891 39.5604C74.6776 39.5721 74.6638 39.5813 74.6486 39.5873C74.463 39.6886 74.2661 39.7674 74.0619 39.822C73.8133 39.892 73.5564 39.9279 73.2981 39.9288C73.1414 39.9368 72.9852 39.9061 72.8431 39.8394C72.7011 39.7727 72.5777 39.672 72.4839 39.5463C72.2977 39.2921 72.2042 38.9323 72.2035 38.4669V35.1629L71.6121 35.1641ZM75.4405 37.1645C75.4405 36.3667 75.6509 35.7081 76.0717 35.1887C76.4926 34.6694 77.112 34.4081 77.9302 34.405C78.7452 34.405 79.3632 34.6662 79.784 35.1887C80.2048 35.7112 80.4168 36.3698 80.4199 37.1645C80.4199 37.9624 80.2079 38.6229 79.784 39.1462C79.36 39.6695 78.7421 39.9292 77.9302 39.9253C77.116 39.9253 76.4965 39.6656 76.0717 39.1462C75.647 38.6268 75.4366 37.9663 75.4405 37.1645ZM76.3874 37.1645C76.3874 37.8779 76.5282 38.4059 76.8097 38.7485C76.9485 38.9097 77.1205 39.0391 77.3138 39.1278C77.5072 39.2165 77.7175 39.2624 77.9302 39.2624C78.143 39.2624 78.3532 39.2165 78.5466 39.1278C78.74 39.0391 78.9119 38.9097 79.0507 38.7485C79.3323 38.4059 79.4731 37.8779 79.4731 37.1645C79.4731 36.4512 79.3323 35.9236 79.0507 35.5818C78.9121 35.4202 78.7402 35.2905 78.5468 35.2015C78.3534 35.1126 78.1431 35.0666 77.9302 35.0666C77.7173 35.0666 77.507 35.1126 77.3136 35.2015C77.1202 35.2905 76.9483 35.4202 76.8097 35.5818C76.5282 35.9236 76.3874 36.4512 76.3874 37.1645ZM85.2843 39.8373C85.2528 39.8428 85.2204 39.8408 85.1898 39.8314C85.1592 39.822 85.1312 39.8054 85.1083 39.783C85.0854 39.7607 85.0681 39.7332 85.0579 39.7028C85.0477 39.6725 85.0449 39.6401 85.0496 39.6085V32.55C85.0449 32.5184 85.0477 32.486 85.0579 32.4557C85.0681 32.4253 85.0854 32.3978 85.1083 32.3755C85.1312 32.3531 85.1592 32.3366 85.1898 32.3271C85.2204 32.3177 85.2528 32.3157 85.2843 32.3213H85.7219C85.7535 32.3157 85.7859 32.3177 85.8165 32.3271C85.8471 32.3366 85.875 32.3531 85.8979 32.3755C85.9208 32.3978 85.9381 32.4253 85.9483 32.4557C85.9585 32.486 85.9614 32.5184 85.9566 32.55V34.818C85.9566 34.9224 85.9566 35.0268 85.9472 35.1277H85.9566C86.1325 34.9134 86.347 34.7339 86.589 34.5986C86.8807 34.4565 87.2035 34.3899 87.5276 34.405C87.837 34.3919 88.1443 34.4626 88.4169 34.6096C88.6895 34.7567 88.9173 34.9746 89.0763 35.2404C89.4227 35.8235 89.6056 36.4892 89.6056 37.1675C89.6056 37.8457 89.4227 38.5114 89.0763 39.0946C88.9164 39.3592 88.6883 39.576 88.4158 39.7221C88.1433 39.8683 87.8365 39.9384 87.5276 39.9253C87.2035 39.9404 86.8807 39.8738 86.589 39.7317C86.347 39.5958 86.1325 39.4159 85.9566 39.2013H85.9472L85.9167 39.6096C85.9061 39.7622 85.8404 39.8384 85.7172 39.8384L85.2843 39.8373ZM85.9507 37.7488C85.9507 38.258 86.0716 38.6386 86.3133 38.8904C86.4322 39.0121 86.575 39.1078 86.7326 39.1716C86.8903 39.2354 87.0595 39.2659 87.2296 39.2612C87.7458 39.2612 88.1107 39.068 88.3243 38.6816C88.5378 38.2952 88.6446 37.7895 88.6446 37.1645C88.6446 36.5388 88.5358 36.0331 88.3184 35.6475C88.1009 35.2619 87.7361 35.0683 87.2237 35.0667C87.0532 35.0622 86.8836 35.0934 86.7258 35.1583C86.568 35.2231 86.4255 35.3202 86.3074 35.4433C86.0657 35.6921 85.9449 36.0707 85.9449 36.5791L85.9507 37.7488ZM90.4678 37.1622C90.4678 36.3213 90.6782 35.651 91.0991 35.1512C91.5199 34.6514 92.1225 34.4019 92.9071 34.4026C93.2104 34.3946 93.512 34.4518 93.7913 34.5705C94.0707 34.6891 94.3213 34.8663 94.5262 35.0902C94.958 35.5454 95.1735 36.2736 95.1727 37.2748C95.1727 37.4274 95.1034 37.5036 94.9638 37.5036H91.4088C91.4675 38.1599 91.6442 38.6167 91.9391 38.874C92.2146 39.1212 92.5722 39.2571 92.9423 39.2553C93.3353 39.2553 93.638 39.1896 93.848 39.057C94.0263 38.955 94.1852 38.8224 94.3173 38.6652C94.4265 38.522 94.5309 38.495 94.633 38.583L94.9333 38.8435C95.0119 38.9104 95.0119 39.0042 94.9333 39.1227C94.8688 39.2213 94.6846 39.3797 94.3784 39.592C94.0721 39.8044 93.5993 39.9182 92.9481 39.9182C92.0987 39.9182 91.4729 39.6687 91.0709 39.1697C90.6689 38.6706 90.4659 38.0023 90.462 37.1645L90.4678 37.1622ZM91.3947 36.8419H94.2716C94.2682 36.4002 94.1414 35.9682 93.9055 35.5947C93.7996 35.4219 93.6492 35.2806 93.4701 35.1857C93.2909 35.0908 93.0896 35.0456 92.8871 35.055C92.7019 35.0509 92.5178 35.0838 92.3455 35.1519C92.1732 35.22 92.0163 35.3219 91.884 35.4516C91.6047 35.7144 91.4385 36.1782 91.3853 36.8431L91.3947 36.8419ZM102.76 39.8361C102.729 39.8406 102.697 39.8378 102.668 39.8279C102.638 39.818 102.611 39.8013 102.588 39.7791C102.566 39.7569 102.549 39.7298 102.54 39.6999C102.53 39.6701 102.527 39.6384 102.531 39.6073V34.7194C102.526 34.6879 102.528 34.6555 102.537 34.6249C102.547 34.5943 102.563 34.5664 102.586 34.5434C102.608 34.5205 102.636 34.5032 102.666 34.493C102.696 34.4828 102.729 34.48 102.76 34.4848H103.188C103.221 34.4789 103.254 34.481 103.285 34.4907C103.316 34.5004 103.344 34.5176 103.367 34.5406C103.39 34.5637 103.407 34.592 103.417 34.6232C103.427 34.6543 103.429 34.6873 103.423 34.7194V35.1266H103.443C103.645 34.8844 103.901 34.6928 104.19 34.5673C104.479 34.4418 104.793 34.3858 105.108 34.4038C105.726 34.4038 106.169 34.5786 106.437 34.9283C106.706 35.2779 106.841 35.7531 106.844 36.3538V39.6085C106.849 39.6396 106.846 39.6713 106.836 39.7011C106.826 39.7309 106.81 39.758 106.787 39.7803C106.765 39.8025 106.738 39.8192 106.708 39.8291C106.678 39.839 106.647 39.8418 106.616 39.8373H106.169C106.137 39.8428 106.105 39.8408 106.074 39.8314C106.043 39.822 106.016 39.8054 105.993 39.783C105.97 39.7607 105.952 39.7332 105.942 39.7028C105.932 39.6725 105.929 39.6401 105.934 39.6085V36.599C105.934 35.9334 105.823 35.5122 105.602 35.3354C105.362 35.1496 105.065 35.054 104.762 35.0655C104.321 35.0655 103.986 35.1981 103.759 35.4633C103.531 35.7284 103.418 36.1782 103.418 36.8126V39.6085C103.423 39.6401 103.42 39.6723 103.41 39.7025C103.399 39.7328 103.382 39.7601 103.359 39.7824C103.336 39.8047 103.309 39.8213 103.278 39.8308C103.248 39.8404 103.215 39.8426 103.184 39.8373L102.76 39.8361ZM108.509 39.8361C108.478 39.8414 108.446 39.8392 108.415 39.8297C108.385 39.8201 108.357 39.8035 108.334 39.7813C108.311 39.759 108.294 39.7316 108.283 39.7014C108.273 39.6711 108.27 39.6389 108.275 39.6073V34.7194C108.269 34.6874 108.271 34.6545 108.281 34.6235C108.291 34.5924 108.308 34.5642 108.331 34.5412C108.354 34.5182 108.382 34.5011 108.413 34.4913C108.444 34.4815 108.477 34.4792 108.509 34.4848H108.936C108.968 34.4789 109.001 34.481 109.033 34.4907C109.064 34.5004 109.092 34.5176 109.115 34.5406C109.138 34.5637 109.155 34.592 109.165 34.6232C109.175 34.6543 109.177 34.6873 109.171 34.7194V35.1266H109.192C109.394 34.8842 109.649 34.6925 109.939 34.5669C110.228 34.4414 110.542 34.3855 110.857 34.4038C111.475 34.4038 111.918 34.5786 112.186 34.9283C112.455 35.2779 112.59 35.7531 112.593 36.3538V39.6085C112.598 39.6401 112.595 39.6725 112.585 39.7028C112.575 39.7332 112.558 39.7607 112.535 39.783C112.512 39.8054 112.484 39.822 112.453 39.8314C112.423 39.8408 112.39 39.8428 112.359 39.8373H111.92C111.889 39.8418 111.857 39.839 111.827 39.8291C111.798 39.8192 111.77 39.8025 111.748 39.7803C111.726 39.758 111.709 39.7309 111.699 39.7011C111.689 39.6713 111.687 39.6396 111.691 39.6085V36.599C111.691 35.9334 111.581 35.5122 111.36 35.3354C111.121 35.1496 110.823 35.054 110.52 35.0655C110.079 35.0655 109.745 35.1981 109.517 35.4633C109.29 35.7284 109.172 36.1782 109.165 36.8126V39.6085C109.17 39.6396 109.167 39.6713 109.157 39.7011C109.147 39.7309 109.13 39.758 109.108 39.7803C109.086 39.8025 109.059 39.8192 109.029 39.8291C108.999 39.839 108.967 39.8418 108.936 39.8373L108.509 39.8361ZM113.723 37.1645C113.723 36.3667 113.934 35.7081 114.355 35.1887C114.775 34.6694 115.395 34.4081 116.213 34.405C117.027 34.405 117.645 34.6662 118.066 35.1887C118.486 35.7112 118.699 36.3698 118.703 37.1645C118.703 37.9624 118.49 38.6229 118.066 39.1462C117.641 39.6695 117.023 39.9292 116.213 39.9253C115.397 39.9253 114.778 39.6656 114.355 39.1462C113.931 38.6268 113.721 37.9663 113.723 37.1645ZM114.67 37.1645C114.67 37.8779 114.811 38.4059 115.093 38.7485C115.231 38.9097 115.403 39.0391 115.596 39.1278C115.79 39.2165 116 39.2624 116.212 39.2624C116.425 39.2624 116.635 39.2165 116.829 39.1278C117.022 39.0391 117.194 38.9097 117.332 38.7485C117.615 38.4059 117.756 37.8779 117.756 37.1645C117.756 36.4512 117.615 35.9236 117.332 35.5818C117.194 35.4202 117.022 35.2905 116.829 35.2016C116.635 35.1127 116.425 35.0666 116.212 35.0666C116 35.0666 115.789 35.1127 115.596 35.2016C115.403 35.2905 115.231 35.4202 115.093 35.5818C114.811 35.9236 114.67 36.4512 114.67 37.1645ZM119.451 34.7417C119.393 34.5751 119.439 34.4918 119.589 34.4918H120.143C120.253 34.4918 120.329 34.5575 120.372 34.6901L121.453 38.0515C121.541 38.3261 121.6 38.5162 121.63 38.6217C121.67 38.7466 121.701 38.874 121.723 39.0031H121.743C121.764 38.8744 121.793 38.7471 121.829 38.6217L122.013 38.0515L123.092 34.6901C123.137 34.5575 123.209 34.4918 123.327 34.4918H123.882C124.032 34.4918 124.077 34.5751 124.02 34.7417L122.349 39.5275C122.278 39.7352 122.186 39.8384 122.075 39.8384H121.402C121.285 39.8384 121.198 39.7352 121.127 39.5275L119.451 34.7417ZM124.589 38.4117C124.589 37.8079 124.871 37.3648 125.434 37.0824C125.997 36.8 126.842 36.6354 127.97 36.5885V36.2423C127.978 35.9532 127.902 35.668 127.751 35.4211C127.609 35.1864 127.324 35.0691 126.896 35.0691C126.676 35.0619 126.456 35.0896 126.245 35.1512C126.086 35.1991 125.935 35.2695 125.796 35.36C125.654 35.4524 125.526 35.5637 125.414 35.6909C125.322 35.793 125.235 35.7977 125.155 35.7062L124.889 35.3999C124.814 35.3155 124.84 35.2134 124.966 35.0949C125.121 34.9431 125.298 34.8143 125.49 34.7124C125.691 34.6169 125.903 34.5453 126.121 34.4989C126.375 34.438 126.635 34.4072 126.896 34.4073C127.606 34.4073 128.112 34.5908 128.413 34.9576C128.714 35.3245 128.865 35.8235 128.867 36.4547V39.612C128.871 39.6436 128.868 39.6758 128.858 39.7061C128.848 39.7363 128.83 39.7637 128.808 39.786C128.785 39.8082 128.757 39.8248 128.726 39.8344C128.696 39.8439 128.664 39.8461 128.632 39.8408H128.175C128.042 39.8408 127.975 39.7645 127.975 39.612V39.3586H127.966C127.73 39.5505 127.463 39.7005 127.176 39.8021C126.899 39.8849 126.61 39.9245 126.321 39.9194C125.764 39.9194 125.334 39.7868 125.03 39.5216C124.727 39.2565 124.58 38.8865 124.589 38.4117ZM125.516 38.4317C125.508 38.6109 125.554 38.7884 125.648 38.9409C125.735 39.0658 125.866 39.1531 126.015 39.1849C126.175 39.2196 126.339 39.2369 126.504 39.2365C126.754 39.2375 127.003 39.212 127.248 39.1603C127.519 39.0888 127.767 38.9504 127.97 38.7578V37.2561C127.477 37.2801 126.987 37.3429 126.504 37.4438C126.236 37.5024 125.99 37.6326 125.79 37.8204C125.704 37.8973 125.635 37.9914 125.588 38.0968C125.541 38.2021 125.516 38.3162 125.516 38.4317ZM130.058 35.1629C129.905 35.1629 129.829 35.1031 129.829 34.9846V34.669C129.829 34.5517 129.905 34.4906 130.058 34.4906H130.658V34.0319C130.659 33.964 130.676 33.8973 130.71 33.8383L131.062 33.1918C131.127 33.0745 131.179 33.0135 131.219 33.0135H131.398C131.5 33.0135 131.55 33.0733 131.55 33.1918V34.4906H132.635C132.788 34.4906 132.87 34.5493 132.87 34.669V34.9846C132.87 35.1019 132.794 35.1629 132.635 35.1629H131.55V38.4059C131.55 38.7625 131.603 38.9952 131.708 39.104C131.759 39.1549 131.819 39.1951 131.886 39.2221C131.953 39.2491 132.024 39.2624 132.096 39.2612C132.238 39.2551 132.378 39.2208 132.507 39.1603C132.626 39.116 132.739 39.0577 132.844 38.9866C132.905 38.9397 132.952 38.955 132.986 39.0324L133.154 39.4243C133.161 39.4388 133.166 39.4548 133.167 39.4712C133.168 39.4876 133.165 39.504 133.16 39.5194C133.154 39.5347 133.145 39.5487 133.133 39.5604C133.122 39.5721 133.108 39.5813 133.093 39.5873C132.91 39.6882 132.715 39.767 132.513 39.822C132.264 39.892 132.007 39.928 131.748 39.9288C131.592 39.9367 131.435 39.906 131.293 39.8393C131.151 39.7726 131.028 39.6719 130.934 39.5463C130.748 39.2921 130.654 38.9323 130.654 38.4669V35.1629H130.058ZM133.887 37.1645C133.887 36.3667 134.098 35.7081 134.518 35.1887C134.939 34.6694 135.559 34.4081 136.377 34.405C137.192 34.405 137.81 34.6662 138.231 35.1887C138.652 35.7112 138.864 36.3698 138.868 37.1645C138.868 37.9624 138.655 38.6229 138.231 39.1462C137.806 39.6695 137.188 39.9292 136.377 39.9253C135.563 39.9253 134.943 39.6656 134.518 39.1462C134.094 38.6268 133.883 37.9663 133.887 37.1645ZM134.834 37.1645C134.834 37.8779 134.975 38.4059 135.256 38.7485C135.395 38.9097 135.567 39.0391 135.761 39.1278C135.954 39.2165 136.164 39.2624 136.377 39.2624C136.59 39.2624 136.8 39.2165 136.993 39.1278C137.187 39.0391 137.359 38.9097 137.497 38.7485C137.779 38.4059 137.92 37.8779 137.92 37.1645C137.92 36.4512 137.778 35.9232 137.495 35.5806C137.356 35.419 137.185 35.2893 136.991 35.2004C136.798 35.1114 136.587 35.0654 136.375 35.0654C136.162 35.0654 135.951 35.1114 135.758 35.2004C135.565 35.2893 135.393 35.419 135.254 35.5806C134.974 35.9232 134.834 36.4512 134.834 37.1645ZM140.252 39.8384C140.221 39.844 140.188 39.842 140.158 39.8326C140.127 39.8231 140.099 39.8065 140.076 39.7842C140.053 39.7618 140.036 39.7344 140.026 39.704C140.016 39.6736 140.013 39.6413 140.018 39.6096V34.7194C140.012 34.6873 140.014 34.6543 140.024 34.6232C140.033 34.592 140.05 34.5637 140.073 34.5406C140.097 34.5176 140.125 34.5004 140.156 34.4907C140.187 34.481 140.22 34.4789 140.252 34.4848H140.68C140.712 34.48 140.744 34.4828 140.775 34.493C140.805 34.5032 140.833 34.5205 140.855 34.5434C140.877 34.5664 140.894 34.5943 140.903 34.6249C140.913 34.6555 140.915 34.6879 140.909 34.7194V35.3307H140.929C141.065 35.0583 141.262 34.8213 141.505 34.6385C141.748 34.4762 142.035 34.3941 142.327 34.4038C142.481 34.395 142.636 34.4141 142.784 34.4601C142.863 34.4906 142.892 34.5411 142.871 34.6127L142.754 35.0303C142.737 35.0914 142.693 35.1148 142.622 35.1019C142.512 35.0784 142.399 35.0662 142.286 35.0655C142.09 35.0663 141.897 35.116 141.725 35.2103C141.554 35.3046 141.408 35.4404 141.302 35.6053C141.045 35.9619 140.916 36.4492 140.916 37.0672V39.6085C140.921 39.6401 140.918 39.6723 140.908 39.7025C140.897 39.7328 140.88 39.7601 140.857 39.7824C140.834 39.8047 140.806 39.8213 140.776 39.8308C140.745 39.8404 140.713 39.8426 140.682 39.8373L140.252 39.8384Z" fill="#242746"/>
<path d="M100.213 39.8373C100.044 39.8373 99.958 39.7435 99.958 39.5569V32.8153C99.958 32.6287 100.044 32.5349 100.213 32.5349H100.682C100.851 32.5349 100.937 32.6287 100.937 32.8153V39.5569C100.937 39.7435 100.851 39.8373 100.682 39.8373H100.213Z" fill="#ED3237"/>
<path d="M34.4658 11.553L19.3975 36.6952L23.3185 43.5365L41.9607 11.553H34.4658Z" fill="#ED3237"/>
<path d="M40.0693 0.792908H48.0311C46.9998 2.61852 45.2763 5.66435 43.9857 7.95575H36.3359L40.0693 0.792908Z" fill="#ED3237"/>
<path d="M19.4118 21.9824H11.4863C13.3636 25.413 17.1356 32.3306 17.1356 32.5641C17.1356 32.7976 19.9515 28.0822 21.3512 25.6958L19.4118 21.9824Z" fill="#242746"/>
<path d="M36.3597 0.792908H0.105469L9.18545 17.7045C9.28576 17.8914 9.43486 18.0475 9.61687 18.1564C9.79889 18.2653 10.007 18.3228 10.2191 18.3228H17.3972L11.4862 7.50287H24.0262L22.0117 11.1623H17.3972L23.4431 22.1148L36.3597 0.792908Z" fill="#242746"/>
<path d="M194.136 13.106L194.14 13.1083L194.146 13.1107L194.374 12.5715L194.136 13.106Z" fill="#242746"/>
<path d="M196.937 11.2551C196.151 10.354 195.029 9.93988 193.671 9.93988C192.912 9.94318 192.161 10.1046 191.467 10.4139C191.106 10.5717 190.758 10.7569 190.426 10.9677V10.2637H187.325V22.8506H190.421V14.037C190.83 13.743 191.266 13.4896 191.724 13.2802C192.164 13.0687 192.644 12.9539 193.132 12.9435C193.475 12.9283 193.819 12.9842 194.14 13.1077L194.374 12.5715L194.14 13.1101C194.333 13.1871 194.495 13.3262 194.601 13.5055V13.5125C194.743 13.7747 194.829 14.0636 194.853 14.3608L195.44 14.2833H195.406L194.858 14.3561C194.918 14.8186 194.947 15.2847 194.944 15.7511V22.8506H198.041V14.8489C198.052 13.3717 197.71 12.1433 196.937 11.2551Z" fill="#242746"/>
<path d="M130.47 13.6357L130.924 13.2673L130.468 13.6333L130.469 13.6345L130.47 13.6357Z" fill="#242746"/>
<path d="M132.787 11.7654C131.708 10.5417 130.262 9.94214 128.512 9.94214C126.761 9.94214 125.295 10.5405 124.215 11.7678C123.147 12.9809 122.646 14.6024 122.646 16.5641C122.646 18.5258 123.147 20.1461 124.215 21.3605C125.296 22.5795 126.749 23.1743 128.511 23.1743C130.272 23.1743 131.707 22.5783 132.786 21.3605C133.865 20.1426 134.365 18.5246 134.365 16.5629C134.365 14.6012 133.858 12.9774 132.787 11.7654ZM130.469 13.6426C130.925 14.207 131.207 15.1456 131.207 16.5676C131.207 17.9474 130.925 18.8848 130.456 19.475C129.999 20.0499 129.375 20.3479 128.512 20.3479C127.648 20.3479 127.006 20.0476 126.55 19.4703C126.081 18.8719 125.804 17.9345 125.804 16.5688C125.804 15.1456 126.083 14.207 126.535 13.6356C126.988 13.0701 127.621 12.7709 128.512 12.7709C129.402 12.7709 130.013 13.0677 130.468 13.6356" fill="#242746"/>
<path d="M85.0566 20.0558H79.4073L85.3417 12.5785L84.8818 12.2136L85.3417 12.5785L85.4685 12.4189V12.2136V10.8432V10.2566H84.8818H75.9731H75.3865V10.8432V12.4494V13.0361H75.9731H81.2752L75.3701 20.4829L75.8288 20.8477L75.3701 20.4829L75.2422 20.6436V20.8477V22.2686V22.8552H75.8288H85.0566H85.6433V22.2686V20.6424V20.0558H85.0566Z" fill="#242746"/>
<path d="M65.268 15.053H65.2668L65.2656 15.0541L65.5042 15.5874L65.268 15.053Z" fill="#242746"/>
<path d="M61.4378 23.5545H61.0436L60.9356 23.5991L61.1609 24.1412L60.9356 23.5991C60.6998 23.6826 60.4577 23.7473 60.2117 23.7927H60.2L60.3314 24.3606L60.1988 23.7892C59.9174 23.8601 59.6289 23.8995 59.3388 23.9065C58.5046 23.9065 58.1115 23.7035 57.9367 23.4841C57.7478 23.2495 57.6059 22.8975 57.5437 22.4059C58.7662 21.8251 59.7483 20.9029 60.4863 19.6593C61.3169 18.2724 61.7147 16.5947 61.7147 14.6541C61.7319 13.4496 61.5524 12.2504 61.1832 11.1037C60.866 10.1005 60.3402 9.17563 59.6403 8.38995L59.2086 8.78535L59.6403 8.38878C58.9669 7.65792 58.1382 7.0874 57.2152 6.71921H57.2093C56.2066 6.31632 55.1337 6.1169 54.0532 6.13257C52.9823 6.12253 51.9194 6.31727 50.9217 6.7063C49.9855 7.07029 49.1471 7.64758 48.4731 8.3923C47.7713 9.19087 47.2424 10.126 46.9197 11.1389C46.5585 12.2767 46.3826 13.4651 46.3987 14.6588C46.3806 15.8625 46.5565 17.0613 46.9197 18.2091L47.477 18.0237H47.4652L46.9197 18.2091C47.243 19.2032 47.7687 20.1196 48.4637 20.9006C49.1396 21.6445 49.9756 22.225 50.9088 22.5983L51.1294 22.0539V22.061L50.9088 22.5983C51.9105 22.9908 52.9786 23.186 54.0544 23.1732C54.1846 23.1732 54.316 23.1662 54.4498 23.1568C54.6046 24.2127 55.0247 25.088 55.7474 25.738C56.6004 26.51 57.7068 26.8714 59.0056 26.8714C59.4322 26.872 59.8585 26.847 60.2821 26.7963H60.295C60.7301 26.7516 61.1614 26.6755 61.5856 26.5687L61.4436 25.9996L61.5856 26.5687L62.0303 26.4572V23.5545H61.4378ZM47.4758 11.3243H47.4699H47.4758ZM48.906 8.78769L48.6948 8.5988L48.9072 8.79004L48.906 8.78769ZM57.2257 18.8779C56.4561 19.7895 55.4224 20.2553 54.0637 20.2553C52.7051 20.2553 51.6667 19.786 50.8889 18.8767C50.111 17.9674 49.678 16.5818 49.678 14.6635C49.678 12.7651 50.1016 11.3924 50.8642 10.4631C51.6269 9.5339 52.6687 9.05637 54.0626 9.05637C55.4564 9.05637 56.4772 9.52568 57.241 10.4584C58.0095 11.3865 58.4354 12.7581 58.4354 14.6564C58.4354 16.5747 58.0024 17.9498 57.2234 18.8708L57.5613 19.1559L57.221 18.8685L57.2257 18.8779Z" fill="#242746"/>
<path d="M73.2625 12.4224C73.0054 11.8448 72.6007 11.3451 72.0893 10.9734C71.5589 10.5917 70.9534 10.3273 70.3129 10.1979C69.5829 10.0433 68.838 9.97049 68.0919 9.98082C67.3559 9.9842 66.6214 10.0505 65.8967 10.1791C65.1822 10.2964 64.6178 10.4138 64.2166 10.5311L64.3703 11.0966L64.2166 10.5311L63.7836 10.6484V13.6285H64.5815L64.6824 13.591L64.4723 13.0419L64.6824 13.591C65.2769 13.3601 65.8889 13.1773 66.5127 13.0442H66.5185L66.4012 12.5198L66.3907 12.4705L66.5174 13.0442C67.0295 12.9244 67.5531 12.8603 68.079 12.853C68.4515 12.8519 68.8236 12.8774 69.1924 12.9293C69.4633 12.961 69.7256 13.0439 69.9656 13.1733L70.2578 12.6653L69.968 13.1698C70.1499 13.2705 70.2981 13.4228 70.3939 13.6074L70.9078 13.3258L70.3939 13.6074C70.4799 13.7775 70.5314 13.9629 70.5452 14.153C69.6289 14.207 68.7572 14.2774 67.937 14.37C67.0159 14.457 66.1132 14.6829 65.2596 15.04L65.4943 15.5762L65.2596 15.04C64.5232 15.3504 63.8872 15.8589 63.4223 16.5089L63.9033 16.8433L63.8881 16.8328L63.4187 16.5089C62.9623 17.1671 62.7617 17.9943 62.7617 18.94C62.7617 20.1449 63.1771 21.1692 64.0183 21.9729C64.4195 22.3593 64.8929 22.6629 65.4115 22.8662C65.9301 23.0696 66.4837 23.1687 67.0406 23.1579C67.5807 23.1655 68.1196 23.1047 68.6445 22.9772C69.0598 22.8783 69.4637 22.7364 69.8495 22.5536L69.8624 22.5478C70.1015 22.4375 70.3321 22.3097 70.5523 22.1653V22.8505H73.638V14.5202C73.6521 13.7224 73.5312 13.0173 73.2625 12.4224ZM70.1909 10.7716L70.2003 10.7294L70.1909 10.7716ZM68.5131 22.4222L68.5225 22.4586L68.5131 22.4222ZM70.5663 21.696L70.4572 21.5434L70.5065 21.6115L70.5663 21.696ZM70.5663 19.1582C70.1828 19.432 69.7761 19.6719 69.3508 19.8751C68.847 20.1034 68.2989 20.2176 67.7458 20.2094C66.9996 20.2094 66.5584 20.0569 66.3132 19.8575C66.068 19.658 65.9284 19.3541 65.9284 18.8226C65.9284 18.3639 66.0598 18.0788 66.2604 17.884C66.5678 17.6 66.9419 17.3983 67.348 17.2974C67.9299 17.152 68.5236 17.059 69.122 17.0193C69.65 16.9747 70.1303 16.9356 70.5628 16.902L70.5663 19.1582Z" fill="#242746"/>
<path d="M157.667 12.4224C157.41 11.8448 157.005 11.3451 156.493 10.9734C155.963 10.5917 155.357 10.3273 154.717 10.1979C153.987 10.0432 153.242 9.97039 152.496 9.98084C151.76 9.98422 151.026 10.0506 150.301 10.1791C149.586 10.2965 149.022 10.4138 148.621 10.5311L148.776 11.0966L148.622 10.5311L148.189 10.6484V13.6286H148.987L149.088 13.591L148.876 13.0419L149.085 13.591C149.681 13.3599 150.294 13.1771 150.919 13.0443L150.802 12.5198L150.791 12.4705L150.917 13.0443C151.429 12.9245 151.952 12.8603 152.478 12.853C152.851 12.852 153.223 12.8775 153.592 12.9293C153.863 12.9611 154.125 13.0439 154.365 13.1733L154.657 12.6653L154.367 13.1698C154.549 13.2706 154.698 13.4228 154.793 13.6074L155.307 13.3259L154.793 13.6074C154.88 13.7773 154.931 13.9628 154.945 14.153C154.028 14.207 153.157 14.2774 152.336 14.3701C151.415 14.457 150.513 14.6829 149.659 15.04L149.894 15.5762L149.659 15.04C148.923 15.3504 148.287 15.8589 147.822 16.5089L148.303 16.8433L148.287 16.8328L147.818 16.5089C147.362 17.1672 147.161 17.9943 147.161 18.94C147.161 20.1449 147.576 21.1692 148.418 21.9729C148.819 22.3594 149.292 22.6629 149.811 22.8663C150.33 23.0696 150.883 23.1687 151.44 23.1579C151.98 23.1655 152.519 23.1048 153.044 22.9772C153.459 22.8784 153.863 22.7364 154.249 22.5537L154.262 22.5478C154.501 22.4375 154.731 22.3097 154.952 22.1653V22.8505H158.037V14.5202C158.056 13.7224 157.935 13.0173 157.667 12.4224ZM154.596 10.7716L154.607 10.7294L154.596 10.7716ZM152.917 22.4223L152.925 22.4586L152.917 22.4223ZM154.97 21.696L154.861 21.5435L154.911 21.6115L154.97 21.696ZM154.97 19.1582C154.587 19.432 154.18 19.6719 153.755 19.8751C153.251 20.1034 152.703 20.2176 152.15 20.2095C151.405 20.2095 150.963 20.0569 150.718 19.8575C150.474 19.658 150.332 19.3541 150.332 18.8226C150.332 18.3639 150.464 18.0788 150.665 17.884C150.972 17.5998 151.347 17.398 151.753 17.2974C152.335 17.152 152.928 17.0589 153.526 17.0193C154.054 16.9747 154.534 16.9356 154.967 16.902L154.97 19.1582Z" fill="#242746"/>
<path d="M183.928 11.7656C182.847 10.5395 181.402 9.94464 179.651 9.94464C177.901 9.94464 176.434 10.543 175.355 11.7703C174.287 12.9834 173.786 14.6049 173.786 16.5666C173.786 18.5283 174.287 20.1486 175.355 21.363C176.435 22.582 177.889 23.1768 179.65 23.1768C181.411 23.1768 182.846 22.5808 183.926 21.363C185.005 20.1451 185.505 18.5271 185.505 16.5654C185.505 14.6037 185.003 12.9776 183.928 11.7656ZM181.61 13.6428C182.066 14.2071 182.348 15.1458 182.348 16.5678C182.348 17.9476 182.066 18.885 181.597 19.4752C181.14 20.0501 180.516 20.3481 179.653 20.3481C178.789 20.3481 178.147 20.0477 177.691 19.4705C177.221 18.8721 176.945 17.9346 176.945 16.569C176.945 15.1458 177.224 14.2071 177.676 13.6358C178.128 13.0702 178.762 12.7711 179.653 12.7711C180.543 12.7711 181.154 13.0679 181.608 13.6358" fill="#242746"/>
</svg>
